<?xml version="1.0" encoding="utf-8"?>
<!-- Generator: Adobe Illustrator 12.0.1, SVG Export Plug-In . SVG Version: 6.00 Build 51448)  -->
<!DOCTYPE svg PUBLIC "-//W3C//DTD SVG 1.1//EN" "http://www.w3.org/Graphics/SVG/1.1/DTD/svg11.dtd" [
	<!ENTITY ns_svg "http://www.w3.org/2000/svg">
	<!ENTITY ns_xlink "http://www.w3.org/1999/xlink">
	<!ENTITY st0 "fill:#FFFFFF;">
]>
<svg  version="1.1" id="Layer_2" xmlns="&ns_svg;" xmlns:xlink="&ns_xlink;" width="124.06" height="89.897"
	 viewBox="0 0 124.06 89.897" style="overflow:visible;enable-background:new 0 0 124.06 89.897;" xml:space="preserve">
<g>
	<rect style="&st0;" width="124.06" height="89.897"/>
	<path d="M16.39,6.224h1v74h-1V6.224z M18.39,80.224h1v-74h-1V80.224z M22.39,75.224h1v-69h-1V75.224z M24.39,6.224v69h1h1v-69h-1
		H24.39z M27.39,75.224h1v-69h-1V75.224z M31.39,6.224h-1v69h1h1h1v-69h-1H31.39z M34.39,6.224v69h1h1v-69h-1H34.39z M38.39,6.224
		v69h1h1v-69h-1H38.39z M42.39,75.224h1v-69h-1V75.224z M45.39,6.224v69h1h1v-69h-1H45.39z M50.39,6.224h-1h-1v69h1h1h1h1v-69h-1
		H50.39z M53.39,75.224h1v-69h-1V75.224z M57.39,6.224h-1v69h1h1h1v-69h-1H57.39z M60.39,75.224h1v-69h-1V75.224z M62.39,80.224h1
		v-74h-1V80.224z M64.39,80.224h1v-74h-1V80.224z M66.39,6.224v69h1h1v-69h-1H66.39z M70.39,6.224v69h1h1v-69h-1H70.39z
		 M73.39,6.224v69h1h1v-69h-1H73.39z M76.39,6.224v69h1h1v-69h-1H76.39z M80.39,75.224h1v-69h-1V75.224z M85.39,75.224h1v-69h-1
		V75.224z M87.39,75.224h1v-69h-1V75.224z M90.39,6.224h-1v69h1h1h1v-69h-1H90.39z M94.39,75.224h1v-69h-1V75.224z M98.39,6.224h-1
		v69h1h1h1v-69h-1H98.39z M101.39,75.224h1v-69h-1V75.224z M105.39,75.224h1v-69h-1V75.224z M108.39,80.224h1v-74h-1V80.224z
		 M110.39,6.224v74h1v-74H110.39z"/>
	<g>
		<path d="M10.433,76.116v0.945H7.468l-0.086,1.633c0.172,0,0.315,0,0.43,0c0.945,0,1.661,0.244,2.148,0.73
			c0.43,0.43,0.645,1.003,0.645,1.719s-0.244,1.317-0.73,1.805c-0.659,0.659-1.862,0.988-3.609,0.988v-0.945
			c1.432-0.028,2.363-0.258,2.793-0.688c0.344-0.344,0.516-0.73,0.516-1.16c0-0.458-0.144-0.831-0.43-1.117
			c-0.315-0.315-0.831-0.473-1.547-0.473c-0.315,0-0.73,0.072-1.246,0.215l0.215-3.652H10.433z"/>
		<path d="M24.785,76.76c0.458,0.458,0.688,1.103,0.688,1.934c0,1.318-1.046,3.051-3.137,5.199H20.96
			c1.289-1.231,2.177-2.234,2.664-3.008c-0.201,0.114-0.444,0.172-0.73,0.172c-0.773,0-1.418-0.258-1.934-0.773
			c-0.458-0.458-0.688-1.002-0.688-1.633c0-0.773,0.243-1.403,0.73-1.891c0.487-0.487,1.103-0.73,1.848-0.73
			C23.653,76.03,24.297,76.273,24.785,76.76z M21.82,77.362c-0.315,0.315-0.473,0.716-0.473,1.203c0,0.458,0.143,0.831,0.43,1.117
			c0.286,0.287,0.659,0.43,1.117,0.43c0.43,0,0.788-0.143,1.074-0.43c0.286-0.286,0.43-0.645,0.43-1.074
			c0-0.544-0.144-0.959-0.43-1.246c-0.287-0.286-0.645-0.43-1.074-0.43S22.106,77.076,21.82,77.362z"/>
		<path d="M31.875,76.502c0.286,0.258,0.501,0.673,0.645,1.246c0.114,0.602,0.172,1.347,0.172,2.234
			c0,0.945-0.058,1.704-0.172,2.277c-0.144,0.573-0.358,0.988-0.645,1.246c-0.344,0.315-0.931,0.473-1.762,0.473
			c-0.831,0-1.418-0.157-1.762-0.473c-0.287-0.258-0.501-0.673-0.645-1.246c-0.115-0.602-0.172-1.36-0.172-2.277
			c0-0.888,0.057-1.633,0.172-2.234c0.143-0.573,0.358-0.988,0.645-1.246c0.344-0.315,0.931-0.473,1.762-0.473
			C30.943,76.03,31.531,76.188,31.875,76.502z M29.039,77.276c-0.144,0.144-0.244,0.458-0.301,0.945
			c-0.058,0.487-0.086,1.074-0.086,1.762c0,0.831,0.028,1.446,0.086,1.848c0.057,0.458,0.157,0.759,0.301,0.902
			c0.172,0.172,0.53,0.258,1.074,0.258c0.544,0,0.902-0.086,1.074-0.258c0.143-0.144,0.243-0.444,0.301-0.902
			c0.057-0.401,0.086-1.017,0.086-1.848c0-0.716-0.029-1.303-0.086-1.762c-0.058-0.487-0.158-0.802-0.301-0.945
			c-0.172-0.172-0.53-0.258-1.074-0.258C29.568,77.018,29.21,77.104,29.039,77.276z"/>
		<path d="M38.191,76.116v7.777H37.16v-6.617l-1.891,1.676v-1.289l1.805-1.547H38.191z"/>
		<path d="M46.484,76.717C46.828,77.061,47,77.534,47,78.135c0,0.516-0.187,0.96-0.559,1.332c-0.287,0.287-0.702,0.63-1.246,1.031
			c-0.888,0.659-1.404,1.103-1.547,1.332c-0.172,0.258-0.258,0.63-0.258,1.117h3.48v0.945H42.23c0-0.286,0-0.559,0-0.816
			c0-0.716,0.143-1.289,0.43-1.719c0.286-0.43,0.845-0.931,1.676-1.504c0.544-0.372,0.917-0.659,1.117-0.859
			c0.286-0.286,0.43-0.587,0.43-0.902c0-0.315-0.129-0.587-0.387-0.816c-0.229-0.2-0.53-0.301-0.902-0.301
			c-0.201,0-0.444,0.043-0.73,0.129c-0.401,0.115-0.902,0.344-1.504,0.688v-1.16c0.516-0.229,0.945-0.387,1.289-0.473
			c0.401-0.086,0.73-0.129,0.988-0.129C45.41,76.03,46.025,76.259,46.484,76.717z"/>
		<path d="M53.96,76.116v0.988l-2.062,2.062c0.745,0.058,1.332,0.301,1.762,0.73c0.372,0.373,0.559,0.888,0.559,1.547
			s-0.258,1.246-0.773,1.762s-1.261,0.773-2.234,0.773c-0.688,0-1.332-0.129-1.934-0.387v-1.117c0.63,0.372,1.274,0.559,1.934,0.559
			c0.659,0,1.146-0.157,1.461-0.473c0.315-0.315,0.473-0.688,0.473-1.117c0-0.487-0.172-0.859-0.516-1.117s-0.831-0.387-1.461-0.387
			c-0.201,0-0.401,0.015-0.602,0.043v-0.816l2.105-2.105H49.32v-0.945H53.96z"/>
		<path d="M59.847,76.116l-2.406,5.156h2.02v-1.676h0.945v1.676h1.074v0.945h-1.074v1.676H59.46v-1.676h-2.965v-1.203l2.277-4.898
			H59.847z"/>
		<path d="M69.445,76.116v7.777h-1.031v-6.617l-1.891,1.676v-1.289l1.805-1.547H69.445z"/>
		<path d="M77.738,76.717c0.344,0.344,0.516,0.816,0.516,1.418c0,0.516-0.187,0.96-0.559,1.332c-0.287,0.287-0.702,0.63-1.246,1.031
			c-0.888,0.659-1.404,1.103-1.547,1.332c-0.172,0.258-0.258,0.63-0.258,1.117h3.48v0.945h-4.641c0-0.286,0-0.559,0-0.816
			c0-0.716,0.143-1.289,0.43-1.719c0.286-0.43,0.845-0.931,1.676-1.504c0.544-0.372,0.917-0.659,1.117-0.859
			c0.286-0.286,0.43-0.587,0.43-0.902c0-0.315-0.129-0.587-0.387-0.816c-0.229-0.2-0.53-0.301-0.902-0.301
			c-0.201,0-0.444,0.043-0.73,0.129c-0.401,0.115-0.902,0.344-1.504,0.688v-1.16c0.516-0.229,0.945-0.387,1.289-0.473
			c0.401-0.086,0.73-0.129,0.988-0.129C76.664,76.03,77.279,76.259,77.738,76.717z"/>
		<path d="M85.214,76.116v0.988l-2.062,2.062c0.745,0.058,1.332,0.301,1.762,0.73c0.372,0.373,0.559,0.888,0.559,1.547
			s-0.258,1.246-0.773,1.762s-1.261,0.773-2.234,0.773c-0.688,0-1.332-0.129-1.934-0.387v-1.117c0.63,0.372,1.274,0.559,1.934,0.559
			c0.659,0,1.146-0.157,1.461-0.473c0.315-0.315,0.473-0.688,0.473-1.117c0-0.487-0.172-0.859-0.516-1.117s-0.831-0.387-1.461-0.387
			c-0.201,0-0.401,0.015-0.602,0.043v-0.816l2.105-2.105h-3.352v-0.945H85.214z"/>
		<path d="M91.101,76.116l-2.406,5.156h2.02v-1.676h0.945v1.676h1.074v0.945H91.66v1.676h-0.945v-1.676H87.75v-1.203l2.277-4.898
			H91.101z"/>
		<path d="M99.437,76.116v0.945h-2.965l-0.086,1.633c0.172,0,0.315,0,0.43,0c0.945,0,1.661,0.244,2.148,0.73
			c0.43,0.43,0.645,1.003,0.645,1.719s-0.244,1.317-0.73,1.805c-0.659,0.659-1.862,0.988-3.609,0.988v-0.945
			c1.432-0.028,2.363-0.258,2.793-0.688c0.344-0.344,0.516-0.73,0.516-1.16c0-0.458-0.144-0.831-0.43-1.117
			c-0.315-0.315-0.831-0.473-1.547-0.473c-0.315,0-0.73,0.072-1.246,0.215l0.215-3.652H99.437z"/>
		<path d="M107.128,76.116c0,0.573-0.071,1.003-0.215,1.289c-0.144,0.315-0.516,0.816-1.117,1.504
			c-0.688,0.802-1.117,1.476-1.289,2.02s-0.258,1.218-0.258,2.02v0.945h-1.031v-0.945c0-1.031,0.129-1.833,0.387-2.406
			c0.372-0.831,0.859-1.575,1.461-2.234c0.258-0.286,0.487-0.573,0.688-0.859c0.114-0.172,0.172-0.301,0.172-0.387h-3.824v-0.945
			H107.128z"/>
		<path d="M119.28,79.803v0.344l-5.07,3.395v-1.203l3.695-2.363l-3.695-2.363v-1.203L119.28,79.803z"/>
	</g>
</g>
</svg>
